<svg width="132" height="120" viewBox="0 0 132 120" fill="none" xmlns="http://www.w3.org/2000/svg">
<path fill-rule="evenodd" clip-rule="evenodd" d="M30.9952 60.9825C18.5089 66.0825 10.3125 73.8038 10.3125 82.6613C10.3125 92.1713 19.767 100.369 33.8209 105.424C34.8769 105.806 35.3966 106.894 34.98 107.858C34.5592 108.821 33.3589 109.29 32.3029 108.911C16.3721 103.181 6.1875 93.4425 6.1875 82.6613C6.1875 71.6925 16.7434 61.8 33.1568 56.1113C33.8951 55.8563 34.7284 56.0063 35.3059 56.4975C35.8793 56.9888 36.0979 57.735 35.8628 58.4213C35.2729 60.1388 34.9346 61.7738 34.9346 63.3113C34.9346 65.3963 35.1904 67.425 35.673 69.3788C35.8545 70.1063 35.5451 70.86 34.8851 71.2988C30.162 74.4638 27.2333 78.3638 27.2333 82.6613C27.2333 86.7863 29.931 90.5438 34.3159 93.6338C41.4604 98.67 53.0062 101.88 66 101.88C78.2265 101.88 89.1701 99.0338 96.3806 94.5C97.317 93.9113 98.604 94.125 99.2516 94.9763C99.8993 95.8275 99.6641 96.9975 98.7278 97.5863C90.9563 102.473 79.1835 105.63 66 105.63C51.9544 105.63 39.5134 102.041 31.7914 96.6C26.268 92.7075 23.1083 87.855 23.1083 82.6613C23.1083 77.6025 26.1154 72.8588 31.383 69.0188C31.0076 67.1663 30.8096 65.2613 30.8096 63.3113C30.8096 62.5575 30.8756 61.7775 30.9952 60.9825Z" fill="#1A2F48"/>
<path fill-rule="evenodd" clip-rule="evenodd" d="M99.2228 68.055C102.733 70.35 105.402 73.0088 107.031 75.885C107.551 76.8075 107.151 77.9363 106.136 78.4088C105.126 78.885 103.88 78.5213 103.36 77.5988C101.854 74.9363 99.2393 72.5325 95.8279 70.485C95.1308 70.065 94.7801 69.3075 94.941 68.565C95.2999 66.8663 95.4896 65.1075 95.4896 63.3113C95.4896 61.6463 95.2091 59.7975 94.71 57.8175C94.5409 57.15 94.7884 56.4525 95.3535 55.995C95.9145 55.5413 96.7065 55.4025 97.416 55.6313C114.634 61.2375 125.812 71.3813 125.812 82.6612C125.812 89.7825 121.44 96.4237 113.867 101.76C103.063 109.372 85.6515 114.375 66 114.375C64.8615 114.375 63.9375 113.535 63.9375 112.5C63.9375 111.465 64.8615 110.625 66 110.625C84.5996 110.625 101.116 106.001 111.338 98.7975C117.777 94.26 121.688 88.7175 121.688 82.6612C121.688 73.425 112.794 65.4263 99.4001 60.3488C99.5404 61.3838 99.6146 62.3738 99.6146 63.3113C99.6146 64.9238 99.4826 66.51 99.2228 68.055Z" fill="#1A2F48"/>
<path fill-rule="evenodd" clip-rule="evenodd" d="M66.5899 6.10499C65.9299 5.56124 64.9564 5.47124 64.1809 5.87624C63.4095 6.28124 63.0094 7.09124 63.195 7.88624C63.5456 9.40499 62.997 11.25 61.9946 13.365C60.2333 17.085 56.9993 21.465 53.295 26.1525C47.5489 33.4312 40.689 41.4187 36.1144 48.825C32.8886 54.0525 30.8096 59.0287 30.8096 63.3112C30.8096 80.5725 46.2248 94.5862 65.2121 94.5862C84.1995 94.5862 99.6146 80.5725 99.6146 63.3112C99.6146 56.3887 95.4401 46.6425 89.8961 37.11C81.7039 23.0325 70.6241 9.39749 66.5899 6.10499ZM66.9116 11.94C66.6394 12.8662 66.264 13.8375 65.7814 14.85C63.9251 18.7687 60.5468 23.4 56.6445 28.3387C50.9891 35.5087 44.2159 43.365 39.7114 50.6625C36.8858 55.2412 34.9346 59.5612 34.9346 63.3112C34.9346 78.5025 48.5018 90.8362 65.2121 90.8362C81.9225 90.8362 95.4896 78.5025 95.4896 63.3112C95.4896 56.8387 91.4306 47.775 86.2496 38.8612C79.9301 28.0012 71.8781 17.385 66.9116 11.94Z" fill="#EF4B3B"/>
<path fill-rule="evenodd" clip-rule="evenodd" d="M70.4509 84.3525C71.8493 84.15 73.2146 83.775 74.5388 83.3175C88.4813 78.5213 90.5108 63.8625 88.6669 52.2338C88.506 51.21 87.4583 50.4975 86.3321 50.6438C85.206 50.79 84.4223 51.7425 84.5831 52.7663C85.3999 57.9188 85.4659 63.7725 83.754 68.8725C82.1411 73.68 78.9071 77.805 73.0785 79.8113C72.0184 80.1788 70.9211 80.4863 69.7991 80.6475C68.6771 80.8125 67.9099 81.7725 68.0873 82.7963C68.2688 83.8163 69.3248 84.5138 70.4509 84.3525Z" fill="#EF4B3B"/>
</svg>
