<svg width="535" height="146" viewBox="0 0 535 146" fill="none" xmlns="http://www.w3.org/2000/svg">
<path fill-rule="evenodd" clip-rule="evenodd" d="M215.396 74.1954C200.734 80.4004 191.109 89.7946 191.109 100.571C191.109 112.142 202.211 122.115 218.714 128.266C219.954 128.731 220.564 130.054 220.075 131.227C219.581 132.399 218.171 132.969 216.931 132.509C198.225 125.537 186.266 113.688 186.266 100.571C186.266 87.2259 198.661 75.19 217.934 68.2687C218.801 67.9584 219.78 68.1409 220.458 68.7386C221.131 69.3363 221.388 70.2442 221.112 71.0792C220.419 73.1688 220.022 75.1581 220.022 77.0287C220.022 79.5654 220.322 82.0337 220.889 84.4108C221.102 85.2959 220.739 86.213 219.964 86.7468C214.417 90.5976 210.978 95.3426 210.978 100.571C210.978 105.59 214.146 110.162 219.295 113.921C227.685 120.048 241.242 123.954 256.5 123.954C270.857 123.954 283.707 120.491 292.174 114.975C293.274 114.259 294.785 114.519 295.545 115.554C296.306 116.59 296.03 118.014 294.93 118.73C285.805 124.675 271.981 128.516 256.5 128.516C240.007 128.516 225.398 124.15 216.331 117.53C209.845 112.794 206.135 106.89 206.135 100.571C206.135 94.4164 209.666 88.6448 215.851 83.9728C215.41 81.7189 215.178 79.4012 215.178 77.0287C215.178 76.1116 215.255 75.1626 215.396 74.1954Z" fill="#1A2F48"/>
<path fill-rule="evenodd" clip-rule="evenodd" d="M295.512 82.8002C299.634 85.5925 302.768 88.8273 304.681 92.3267C305.291 93.4491 304.821 94.8224 303.63 95.3973C302.443 95.9767 300.98 95.5342 300.37 94.4118C298.602 91.1724 295.531 88.2479 291.525 85.7567C290.707 85.2457 290.295 84.3241 290.484 83.4207C290.905 81.3539 291.128 79.2141 291.128 77.0287C291.128 75.0029 290.799 72.7536 290.212 70.3446C290.014 69.5325 290.305 68.6839 290.968 68.1272C291.627 67.5752 292.557 67.4064 293.39 67.6847C313.608 74.5056 326.734 86.8472 326.734 100.571C326.734 109.235 321.6 117.316 312.707 123.808C300.021 133.07 279.576 139.156 256.5 139.156C255.163 139.156 254.078 138.134 254.078 136.875C254.078 135.616 255.163 134.594 256.5 134.594C278.34 134.594 297.735 128.968 309.738 120.204C317.299 114.683 321.891 107.94 321.891 100.571C321.891 89.3337 311.448 79.6019 295.72 73.4243C295.885 74.6836 295.972 75.8881 295.972 77.0287C295.972 78.9906 295.817 80.9205 295.512 82.8002Z" fill="#1A2F48"/>
<path fill-rule="evenodd" clip-rule="evenodd" d="M257.193 7.42775C256.418 6.76618 255.275 6.65668 254.364 7.14943C253.458 7.64218 252.988 8.62768 253.206 9.59493C253.618 11.4427 252.974 13.6875 251.797 16.2607C249.728 20.7867 245.931 26.1157 241.581 31.8189C234.834 40.6747 226.779 50.3928 221.407 59.4037C217.619 65.7639 215.178 71.8183 215.178 77.0287C215.178 98.0299 233.279 115.08 255.575 115.08C277.871 115.08 295.972 98.0299 295.972 77.0287C295.972 68.6063 291.07 56.7484 284.56 45.1505C274.94 28.0229 261.93 11.4336 257.193 7.42775ZM257.57 14.527C257.251 15.6539 256.81 16.8356 256.243 18.0675C254.064 22.8353 250.097 28.47 245.514 34.4788C238.874 43.2023 230.92 52.7607 225.631 61.6394C222.313 67.2102 220.022 72.4662 220.022 77.0287C220.022 95.5114 235.953 110.517 255.575 110.517C275.197 110.517 291.128 95.5114 291.128 77.0287C291.128 69.1538 286.362 58.1262 280.278 47.2812C272.857 34.0682 263.402 21.1517 257.57 14.527Z" fill="#EF4B3B"/>
<path fill-rule="evenodd" clip-rule="evenodd" d="M261.726 102.629C263.368 102.383 264.972 101.926 266.527 101.37C282.898 95.5342 285.282 77.6994 283.116 63.5511C282.928 62.3055 281.697 61.4386 280.375 61.6166C279.053 61.7945 278.132 62.9534 278.321 64.1989C279.28 70.4678 279.358 77.5899 277.348 83.7949C275.454 89.644 271.656 94.6628 264.812 97.1037C263.567 97.5508 262.279 97.9249 260.961 98.1211C259.644 98.3219 258.743 99.4899 258.951 100.735C259.164 101.976 260.404 102.825 261.726 102.629Z" fill="#EF4B3B"/>
<path d="M16.5128 100H2.45028L28.054 27.2727H44.3182L69.9574 100H55.8949L36.4702 42.1875H35.902L16.5128 100ZM16.9744 71.4844H55.3267V82.0668H16.9744V71.4844ZM103.214 75.5682H115.146L122.212 84.7301L127.255 90.696L139.364 106.25H126.58L118.342 95.8097L114.826 90.8381L103.214 75.5682ZM141.104 63.6364C141.104 71.4725 139.637 78.1842 136.701 83.7713C133.789 89.3348 129.812 93.5961 124.769 96.5554C119.75 99.5147 114.057 100.994 107.688 100.994C101.32 100.994 95.6143 99.5147 90.5717 96.5554C85.5528 93.5724 81.5755 89.2992 78.6399 83.7358C75.728 78.1487 74.272 71.4489 74.272 63.6364C74.272 55.8002 75.728 49.1004 78.6399 43.5369C81.5755 37.9498 85.5528 33.6766 90.5717 30.7173C95.6143 27.758 101.32 26.2784 107.688 26.2784C114.057 26.2784 119.75 27.758 124.769 30.7173C129.812 33.6766 133.789 37.9498 136.701 43.5369C139.637 49.1004 141.104 55.8002 141.104 63.6364ZM127.859 63.6364C127.859 58.1203 126.995 53.4683 125.266 49.6804C123.562 45.8688 121.194 42.9924 118.164 41.0511C115.134 39.0862 111.642 38.1037 107.688 38.1037C103.735 38.1037 100.243 39.0862 97.2124 41.0511C94.1821 42.9924 91.8028 45.8688 90.0746 49.6804C88.37 53.4683 87.5178 58.1203 87.5178 63.6364C87.5178 69.1525 88.37 73.8163 90.0746 77.6278C91.8028 81.4157 94.1821 84.2921 97.2124 86.2571C100.243 88.1984 103.735 89.169 107.688 89.169C111.642 89.169 115.134 88.1984 118.164 86.2571C121.194 84.2921 123.562 81.4157 125.266 77.6278C126.995 73.8163 127.859 69.1525 127.859 63.6364ZM199.503 27.2727H212.678V74.7869C212.678 79.9953 211.446 84.5762 208.984 88.5298C206.546 92.4834 203.113 95.5729 198.686 97.7983C194.259 100 189.086 101.101 183.168 101.101C177.225 101.101 172.041 100 167.614 97.7983C163.187 95.5729 159.754 92.4834 157.315 88.5298C154.877 84.5762 153.658 79.9953 153.658 74.7869V27.2727H166.832V73.6861C166.832 76.7164 167.495 79.4152 168.821 81.7827C170.17 84.1501 172.064 86.0085 174.503 87.358C176.941 88.6837 179.83 89.3466 183.168 89.3466C186.506 89.3466 189.394 88.6837 191.832 87.358C194.295 86.0085 196.188 84.1501 197.514 81.7827C198.84 79.4152 199.503 76.7164 199.503 73.6861V27.2727Z" fill="#1A2F48"/>
<path d="M299.173 24.2727H315.295L336.886 76.9716H337.739L359.33 24.2727H375.452V97H362.81V47.0355H362.135L342.036 96.7869H332.589L312.49 46.929H311.815V97H299.173V24.2727ZM454.784 60.6364C454.784 68.4725 453.316 75.1842 450.381 80.7713C447.469 86.3348 443.491 90.5961 438.449 93.5554C433.43 96.5147 427.736 97.9943 421.368 97.9943C415 97.9943 409.294 96.5147 404.251 93.5554C399.232 90.5724 395.255 86.2992 392.32 80.7358C389.408 75.1487 387.952 68.4489 387.952 60.6364C387.952 52.8002 389.408 46.1004 392.32 40.5369C395.255 34.9498 399.232 30.6766 404.251 27.7173C409.294 24.758 415 23.2784 421.368 23.2784C427.736 23.2784 433.43 24.758 438.449 27.7173C443.491 30.6766 447.469 34.9498 450.381 40.5369C453.316 46.1004 454.784 52.8002 454.784 60.6364ZM441.538 60.6364C441.538 55.1203 440.674 50.4683 438.946 46.6804C437.241 42.8688 434.874 39.9924 431.844 38.0511C428.813 36.0862 425.321 35.1037 421.368 35.1037C417.414 35.1037 413.922 36.0862 410.892 38.0511C407.862 39.9924 405.482 42.8688 403.754 46.6804C402.05 50.4683 401.197 55.1203 401.197 60.6364C401.197 66.1525 402.05 70.8163 403.754 74.6278C405.482 78.4157 407.862 81.2921 410.892 83.2571C413.922 85.1984 417.414 86.169 421.368 86.169C425.321 86.169 428.813 85.1984 431.844 83.2571C434.874 81.2921 437.241 78.4157 438.946 74.6278C440.674 70.8163 441.538 66.1525 441.538 60.6364ZM527.005 24.2727V97H515.287L481.018 47.4616H480.414V97H467.24V24.2727H479.029L513.262 73.8466H513.902V24.2727H527.005Z" fill="#1A2F48"/>
</svg>
